<?xml version="1.0" encoding="utf-8"?>
<!-- Generator: Adobe Illustrator 17.0.0, SVG Export Plug-In . SVG Version: 6.00 Build 0)  -->
<!DOCTYPE svg PUBLIC "-//W3C//DTD SVG 1.1//EN" "http://www.w3.org/Graphics/SVG/1.1/DTD/svg11.dtd">
<svg version="1.1" id="tomato" xmlns="http://www.w3.org/2000/svg" xmlns:xlink="http://www.w3.org/1999/xlink" x="0px" y="0px"
	   viewBox="0 0 552 612" enable-background="new 0 0 552 612" xml:space="preserve">
<g id="leaf1">
	<g>
		<path fill="#197E3B" d="M282.382,246.978c0,0,22.602-150.772-120.617-192.236C161.783,54.742,139.163,201.737,282.382,246.978z"/>
	</g>
	<g>
		<path fill="#197E3B" d="M275.948,246.978c0,0-22.611-150.772,120.617-192.236C396.547,54.742,419.176,201.737,275.948,246.978z"/>
	</g>
	<g>
		<path fill="#197E3B" d="M280.703,226.875c0,0-97.027-117.578,4.382-226.875C285.086,0,380.183,114.351,280.703,226.875z"/>
	</g>
</g>
<g id="body_2_">
	<g>
		<path fill="#E94D46" d="M552.279,360.127C552.279,499.234,428.64,612,276.135,612C123.61,612,0,499.234,0,360.127
			c0-111.153,66.705-200.106,179.359-220.712c54.285-9.921,96.775,32.56,96.775,32.56s39.133-40.588,91.022-33.38
			C476.408,153.765,552.279,238.4,552.279,360.127z"/>
	</g>
</g>
</svg>
